<?xml version="1.0" encoding="UTF-8" standalone="no"?>
<!-- Generator: Adobe Illustrator 19.0.0, SVG Export Plug-In . SVG Version: 6.00 Build 0)  -->

<svg
   version="1.1"
   id="Camada_1"
   x="0px"
   y="0px"
   viewBox="0 0 224 224"
   xml:space="preserve"
   sodipodi:docname="icon.svg"
   width="224"
   height="224"
   inkscape:version="1.1 (c68e22c387, 2021-05-23)"
   xmlns:inkscape="http://www.inkscape.org/namespaces/inkscape"
   xmlns:sodipodi="http://sodipodi.sourceforge.net/DTD/sodipodi-0.dtd"
   xmlns="http://www.w3.org/2000/svg"
   xmlns:svg="http://www.w3.org/2000/svg"><defs
   id="defs31">
	
	
	
</defs><sodipodi:namedview
   id="namedview29"
   pagecolor="#505050"
   bordercolor="#eeeeee"
   borderopacity="1"
   inkscape:pageshadow="0"
   inkscape:pageopacity="0"
   inkscape:pagecheckerboard="0"
   showgrid="false"
   width="240px"
   fit-margin-left="10"
   fit-margin-top="10"
   lock-margins="true"
   fit-margin-right="10"
   fit-margin-bottom="10"
   inkscape:zoom="0.74681457"
   inkscape:cx="135.91058"
   inkscape:cy="102.43507"
   inkscape:window-width="1366"
   inkscape:window-height="705"
   inkscape:window-x="-8"
   inkscape:window-y="-8"
   inkscape:window-maximized="1"
   inkscape:current-layer="Camada_1" />
<style
   type="text/css"
   id="style2">
	.st0{font-family:'CenturyGothic';}
	.st1{font-size:24px;}
	.st2{fill:#5BA3CD;}
	.st3{fill:#F9B175;}
	.st4{fill:#FF6841;}
</style>
<g
   id="XMLID_3_"
   transform="translate(-58.65,-186.6)">
		<path
   id="XMLID_61_"
   class="st2"
   d="m 220.4,315.1 v 0 c -5.9,-10.2 -5.9,-22.8 0,-33 v 0 c 5.9,-10.2 16.8,-16.5 28.6,-16.5 v 0 c 11.8,0 22.7,6.3 28.6,16.5 v 0 c 5.9,10.2 5.9,22.8 0,33 v 0 c -5.9,10.2 -16.8,16.5 -28.6,16.5 v 0 c -11.8,0 -22.7,-6.3 -28.6,-16.5 z" />
		<path
   id="XMLID_58_"
   class="st3"
   d="m 142.2,315.1 v 0 c -5.9,-10.2 -5.9,-22.8 0,-33 v 0 c 5.9,-10.2 16.8,-16.5 28.6,-16.5 v 0 c 11.8,0 22.7,6.3 28.6,16.5 v 0 c 5.9,10.2 5.9,22.8 0,33 v 0 c -5.9,10.2 -16.8,16.5 -28.6,16.5 v 0 c -11.8,0 -22.7,-6.3 -28.6,-16.5 z" />
		<path
   id="XMLID_6_"
   class="st4"
   d="m 63.7,315.1 v 0 c -5.9,-10.2 -5.9,-22.8 0,-33 v 0 c 5.9,-10.2 16.8,-16.5 28.6,-16.5 v 0 c 11.8,0 22.7,6.3 28.6,16.5 v 0 c 5.9,10.2 5.9,22.8 0,33 v 0 c -5.9,10.2 -16.8,16.5 -28.6,16.5 v 0 c -11.8,0 -22.7,-6.3 -28.6,-16.5 z" />
	</g>
</svg>
