<?xml version="1.0" encoding="UTF-8" standalone="no"?>
<!-- Generator: Adobe Illustrator 19.0.0, SVG Export Plug-In . SVG Version: 6.00 Build 0)  -->

<svg
   version="1.1"
   id="Camada_1"
   x="0px"
   y="0px"
   viewBox="0 0 621.52502 184.10001"
   xml:space="preserve"
   sodipodi:docname="site-logo.svg"
   width="621.52502"
   height="184.10001"
   inkscape:version="1.1 (c68e22c387, 2021-05-23)"
   xmlns:inkscape="http://www.inkscape.org/namespaces/inkscape"
   xmlns:sodipodi="http://sodipodi.sourceforge.net/DTD/sodipodi-0.dtd"
   xmlns="http://www.w3.org/2000/svg"
   xmlns:svg="http://www.w3.org/2000/svg"><defs
   id="defs31">
	
	
	
</defs><sodipodi:namedview
   id="namedview29"
   pagecolor="#505050"
   bordercolor="#eeeeee"
   borderopacity="1"
   inkscape:pageshadow="0"
   inkscape:pageopacity="0"
   inkscape:pagecheckerboard="0"
   showgrid="false"
   width="719px"
   fit-margin-left="10"
   fit-margin-top="10"
   lock-margins="true"
   fit-margin-right="10"
   fit-margin-bottom="10"
   inkscape:zoom="1.0628012"
   inkscape:cx="123.25917"
   inkscape:cy="105.85234"
   inkscape:window-width="1366"
   inkscape:window-height="705"
   inkscape:window-x="-8"
   inkscape:window-y="-8"
   inkscape:window-maximized="1"
   inkscape:current-layer="Camada_1" />
<style
   type="text/css"
   id="style2">
	.st0{font-family:'CenturyGothic';}
	.st1{font-size:24px;}
	.st2{fill:#5BA3CD;}
	.st3{fill:#F9B175;}
	.st4{fill:#FF6841;}
</style>
<g
   id="XMLID_14_"
   transform="translate(-49.275,-255.6)">
		<path
   id="XMLID_12_"
   d="m 63.1,353.1 v 53 h -3.8 v -53 z" />
		<path
   id="XMLID_15_"
   d="m 90.3,354.9 c -2,0 -3.9,0.7 -5.4,2 -1.6,1.3 -2.4,3 -2.4,5 0,2 0.9,3.8 2.7,5.4 1.8,1.7 3.9,3.2 6.4,4.5 2.5,1.4 5,2.9 7.5,4.4 2.5,1.6 4.7,3.6 6.4,6 1.8,2.4 2.7,5.2 2.7,8.4 0,4.6 -1.8,8.6 -5.3,11.9 -3.5,3.3 -7.7,4.9 -12.7,4.9 -3.1,0 -6.1,-0.7 -8.8,-2.1 -2.7,-1.4 -4.7,-3.2 -6,-5.5 v -5.7 c 3,6.6 7.8,9.9 14.4,9.9 4.1,0 7.5,-1.3 10.3,-3.8 2.8,-2.5 4.2,-5.3 4.2,-8.4 0,-3.1 -0.9,-5.7 -2.7,-7.8 -1.8,-2.1 -3.9,-3.9 -6.4,-5.4 -2.5,-1.5 -5,-3 -7.5,-4.4 -2.5,-1.5 -4.6,-3.2 -6.4,-5.3 -1.8,-2.1 -2.7,-4.5 -2.7,-7.3 0,-2.8 1.1,-5.2 3.4,-7.1 2.2,-1.9 5.1,-2.9 8.7,-2.9 3.6,0 6.6,1.4 9.1,4.1 v 4.8 c -2.4,-3.7 -5.6,-5.6 -9.5,-5.6 z" />
		<path
   id="XMLID_23_"
   d="m 279.3,407.6 h -1.1 c -7.6,0 -14,-2.8 -19.5,-8.4 -5.4,-5.6 -8.1,-12.1 -8.1,-19.6 0,-7.5 2.8,-14 8.3,-19.5 5.5,-5.5 12.3,-8.2 20.3,-8.2 8,0 14.9,3 20.5,9.1 v 6 c -2.4,-3.6 -5.5,-6.5 -9.3,-8.6 -3.7,-2.1 -7.7,-3.2 -11.7,-3.2 -6.5,0 -12.2,2.4 -17.1,7.3 -4.8,4.8 -7.3,10.6 -7.3,17.3 0,6.7 2.4,12.4 7.3,17.3 4.8,4.8 10.5,7.3 17.1,7.3 4.1,0 8,-1.1 11.7,-3.2 3.7,-2.1 6.8,-5 9.3,-8.7 v 6.1 c -5.4,6 -12.2,9 -20.4,9 z" />
		<path
   id="XMLID_25_"
   d="m 351.1,429.7 v -51.1 c 0,-4.3 1.2,-8.5 3.5,-12.1 l 0.3,-0.5 v 0 c 2.1,-4.3 5.4,-7.8 10,-10.4 4.5,-2.6 9.2,-3.9 14.1,-3.9 7.8,0 14.4,2.7 19.9,8.2 5.5,5.5 8.2,12 8.2,19.6 0,7.6 -2.7,14.2 -8.2,19.6 -5.5,5.5 -12.1,8.2 -19.9,8.2 -4.7,0 -9.3,-1.3 -13.8,-3.8 -4.5,-2.6 -7.9,-6 -10.3,-10.3 v 36.5 z m 3.5,-50.1 c 0,6.6 2.4,12.3 7.3,17.2 4.8,4.8 10.6,7.3 17.2,7.3 6.6,0 12.3,-2.4 17.1,-7.3 4.7,-4.8 7.1,-10.6 7.1,-17.2 0,-6.6 -2.4,-12.4 -7.1,-17.3 -4.8,-4.9 -10.4,-7.3 -17.1,-7.3 -6.6,0 -12.3,2.5 -17.2,7.4 -4.9,4.9 -7.3,10.6 -7.3,17.2 z" />
		<path
   id="XMLID_28_"
   d="m 423.4,398.9 c -5.4,-5.6 -8.1,-12.2 -8.1,-19.6 0,-7.5 2.8,-13.9 8.3,-19.4 5.5,-5.5 12.1,-8.2 19.9,-8.2 7.7,0 14.4,2.7 19.8,8.2 5.5,5.5 8.2,12 8.2,19.5 0,7.5 -2.7,14.1 -8,19.6 -5.4,5.6 -11.8,8.4 -19.5,8.4 h -1.1 c -7.6,0 -14.1,-2.8 -19.5,-8.5 z m 44.3,-19.3 c 0,-6.6 -2.4,-12.4 -7.1,-17.3 -4.8,-4.9 -10.4,-7.3 -17.1,-7.3 -6.6,0 -12.3,2.5 -17.2,7.4 -4.8,4.9 -7.3,10.7 -7.3,17.3 0,6.6 2.4,12.3 7.3,17.2 4.8,4.8 10.6,7.3 17.2,7.3 6.6,0 12.3,-2.4 17.1,-7.3 4.7,-4.9 7.1,-10.7 7.1,-17.3 z" />
		<path
   id="XMLID_33_"
   d="m 563.5,403.5 v 3.3 c -5.6,0 -10.3,-1.9 -14.3,-5.6 -3.9,-3.7 -5.9,-8.5 -5.9,-14.3 v -55.2 h 3.8 v 21.5 h 16.3 v 3.3 h -16.3 v 30.4 c 0,4.8 1.6,8.8 4.8,11.9 3.1,3.1 7,4.7 11.6,4.7 z" />
		<path
   id="XMLID_35_"
   d="m 599.5,407.5 h -1.1 c -7.5,0 -14,-2.8 -19.5,-8.4 -5.5,-5.6 -8.3,-12.2 -8.3,-19.6 0,-7.5 2.8,-13.9 8.3,-19.4 5.5,-5.5 12.3,-8.2 20.4,-8.2 8.1,0 15.1,3.2 20.9,9.7 l -37.1,36.6 c 5.1,4.1 10,6.1 14.7,6.1 4.7,0 8.9,-1.1 12.7,-3.2 3.7,-2.2 6.8,-5.1 9.3,-8.7 v 6 c -5.6,6 -12.4,9.1 -20.3,9.1 z m -1.3,-52.4 c -6.3,0 -11.8,2.4 -16.6,7.3 -4.8,4.8 -7.3,10.4 -7.3,16.7 0,6.3 2.1,11.8 6.3,16.5 l 34.3,-34.1 c -4.9,-4.3 -10.4,-6.4 -16.7,-6.4 z" />
		<path
   id="XMLID_38_"
   d="m 642.9,354.9 c -2,0 -3.9,0.7 -5.4,2 -1.6,1.3 -2.4,3 -2.4,5 0,2 0.9,3.8 2.7,5.4 1.8,1.7 3.9,3.2 6.4,4.5 2.5,1.4 5,2.9 7.5,4.4 2.5,1.6 4.7,3.6 6.4,6 1.8,2.4 2.7,5.2 2.7,8.4 0,4.6 -1.8,8.6 -5.3,11.9 -3.5,3.3 -7.7,4.9 -12.7,4.9 -3.1,0 -6.1,-0.7 -8.8,-2.1 -2.7,-1.4 -4.7,-3.2 -6,-5.5 v -5.7 c 3,6.6 7.8,9.9 14.4,9.9 4.1,0 7.5,-1.3 10.3,-3.8 2.8,-2.5 4.2,-5.3 4.2,-8.4 0,-3.1 -0.9,-5.7 -2.7,-7.8 -1.8,-2.1 -3.9,-3.9 -6.4,-5.4 -2.5,-1.5 -5,-3 -7.5,-4.4 -2.5,-1.5 -4.6,-3.2 -6.4,-5.3 -1.8,-2.1 -2.7,-4.5 -2.7,-7.3 0,-2.8 1.1,-5.2 3.4,-7.1 2.2,-1.9 5.1,-2.9 8.7,-2.9 3.6,0 6.6,1.4 9.1,4.1 v 4.8 c -2.5,-3.7 -5.7,-5.6 -9.5,-5.6 z" />
		<g
   id="XMLID_11_">
			<path
   id="XMLID_31_"
   d="m 486.4,406.1 h -3.8 v -31.2 c 0,-4 1.3,-8 3.8,-11.2 v 0 0 c 4,-8 10.9,-12 20.5,-12 6.6,0 12.2,2.3 16.6,6.8 4.5,4.6 6.7,10.1 6.7,16.6 V 406 h -3.8 v -30.9 c 0,-5.4 -1.9,-10.1 -5.7,-14.2 -3.8,-4 -8.4,-6 -13.9,-6 -5.4,0 -10.2,2 -14.3,6 -4.1,4 -6.2,8.7 -6.2,14.2 v 31 z" />
			<path
   id="XMLID_2_"
   d="m 506.5,351.7 c -1.1,0.8 -16,0 -22.3,15.8 6.3,-10.7 14.3,-13 22.3,-15.8 z" />
		</g>
		<g
   id="XMLID_18_">
			<path
   id="XMLID_20_"
   d="m 235.7,366.3 c 2.5,4.1 3.8,8.7 3.8,13.5 v 26.3 h -3.8 v -13.2 c -2.2,4.5 -5.5,8 -9.9,10.6 -4.4,2.6 -9.1,3.9 -14.2,3.9 -7.7,0 -14.3,-2.7 -19.8,-8.2 -5.5,-5.5 -8.3,-12 -8.3,-19.6 0,-7.6 2.8,-14.2 8.3,-19.6 5.5,-5.5 12.1,-8.2 19.8,-8.2 5,0 9.9,1.3 14.5,4 4.6,2.6 7.8,6.1 9.6,10.5 z m -48.4,13.3 c 0,6.6 2.4,12.3 7.3,17.2 4.8,4.8 10.6,7.3 17.2,7.3 6.6,0 12.3,-2.4 17.1,-7.3 4.7,-4.8 7.1,-10.6 7.1,-17.2 0,-6.6 -2.4,-12.4 -7.1,-17.3 -4.8,-4.9 -10.4,-7.3 -17.1,-7.3 -6.6,0 -12.3,2.5 -17.2,7.4 -4.9,4.9 -7.3,10.6 -7.3,17.2 z" />
			<path
   id="XMLID_17_"
   d="m 211.6,351.7 c 14.6,0.2 25.4,9.6 27.5,24.2 -4,-13.3 -17.4,-22.4 -27.5,-24.2 z" />
		</g>
		<g
   id="XMLID_19_">
			<path
   id="XMLID_43_"
   d="m 168.7,366.3 c 2.5,4.1 3.8,8.7 3.8,13.5 v 26.3 h -3.8 v -13.2 c -2.2,4.5 -5.5,8 -9.9,10.6 -4.4,2.6 -9.1,3.9 -14.2,3.9 -7.7,0 -14.3,-2.7 -19.8,-8.2 -5.5,-5.5 -8.3,-12 -8.3,-19.6 0,-7.6 2.8,-14.2 8.3,-19.6 5.5,-5.5 12.1,-8.2 19.8,-8.2 5,0 9.9,1.3 14.5,4 4.6,2.6 7.8,6.1 9.6,10.5 z m -48.4,13.3 c 0,6.6 2.4,12.3 7.3,17.2 4.8,4.8 10.6,7.3 17.2,7.3 6.6,0 12.3,-2.4 17.1,-7.3 4.7,-4.8 7.1,-10.6 7.1,-17.2 0,-6.6 -2.4,-12.4 -7.1,-17.3 -4.8,-4.9 -10.4,-7.3 -17.1,-7.3 -6.6,0 -12.3,2.5 -17.2,7.4 -4.9,4.9 -7.3,10.6 -7.3,17.2 z" />
			<path
   id="XMLID_42_"
   d="m 144.6,351.7 c 14.6,0.2 25.4,9.6 27.5,24.2 -4,-13.3 -17.4,-22.4 -27.5,-24.2 z" />
		</g>
	</g><g
   id="XMLID_3_"
   transform="translate(-49.275,-255.6)">
		<path
   id="XMLID_61_"
   class="st2"
   d="m 220.4,315.1 v 0 c -5.9,-10.2 -5.9,-22.8 0,-33 v 0 c 5.9,-10.2 16.8,-16.5 28.6,-16.5 v 0 c 11.8,0 22.7,6.3 28.6,16.5 v 0 c 5.9,10.2 5.9,22.8 0,33 v 0 c -5.9,10.2 -16.8,16.5 -28.6,16.5 v 0 c -11.8,0 -22.7,-6.3 -28.6,-16.5 z" />
		<path
   id="XMLID_58_"
   class="st3"
   d="m 142.2,315.1 v 0 c -5.9,-10.2 -5.9,-22.8 0,-33 v 0 c 5.9,-10.2 16.8,-16.5 28.6,-16.5 v 0 c 11.8,0 22.7,6.3 28.6,16.5 v 0 c 5.9,10.2 5.9,22.8 0,33 v 0 c -5.9,10.2 -16.8,16.5 -28.6,16.5 v 0 c -11.8,0 -22.7,-6.3 -28.6,-16.5 z" />
		<path
   id="XMLID_6_"
   class="st4"
   d="m 63.7,315.1 v 0 c -5.9,-10.2 -5.9,-22.8 0,-33 v 0 c 5.9,-10.2 16.8,-16.5 28.6,-16.5 v 0 c 11.8,0 22.7,6.3 28.6,16.5 v 0 c 5.9,10.2 5.9,22.8 0,33 v 0 c -5.9,10.2 -16.8,16.5 -28.6,16.5 v 0 c -11.8,0 -22.7,-6.3 -28.6,-16.5 z" />
	</g>
</svg>
